<svg width="180" height="180" viewBox="0 0 180 180" fill="none" xmlns="http://www.w3.org/2000/svg">
<g id="Group 110">
<mask id="mask0" mask-type="alpha" maskUnits="userSpaceOnUse" x="0" y="0" width="180" height="180">
<rect id="Rectangle 178" width="180" height="180" fill="#C4C4C4"/>
</mask>
<g mask="url(#mask0)">
<path id="outer-circle" d="M89.5 139C116.838 139 139 116.838 139 89.5C139 62.1619 116.838 40 89.5 40C62.1619 40 40 62.1619 40 89.5C40 116.838 62.1619 139 89.5 139Z" fill="#FF6C00"/>
<path id="EX" d="M83.0625 91.2832H64.5762V106.4H86.0508V111H58.9512V68.3438H85.7578V72.9727H64.5762V86.6836H83.0625V91.2832ZM106.969 84.6914L117.193 68.3438H123.814L110.338 89.4961L124.137 111H117.457L106.969 94.3594L96.4219 111H89.7715L103.6 89.4961L90.0938 68.3438H96.6855L106.969 84.6914Z" fill="white"/>
<path id="Vector" d="M89.5 142C118.495 142 142 118.495 142 89.5C142 60.505 118.495 37 89.5 37C60.505 37 37 60.505 37 89.5C37 118.495 60.505 142 89.5 142Z" stroke="#FF6C00" stroke-opacity="0.5"/>
<path id="express-text"  class="logo-text" fill-rule="evenodd" clip-rule="evenodd" d="M18.789 97.404L21.056 108.082L12.375 109.925L9.975 98.636L7 99.267L10.15 114.102L37.62 108.271L34.341 92.825L31.366 93.456L33.892 105.356L23.992 107.456L21.725 96.778L18.789 97.404ZM40.158 64.06L23.873 68.434L13.134 56.419L11.971 60.419L17.223 65.937C18.653 67.437 19.695 68.478 21.075 69.703L21.04 69.823C19.39 70.123 17.809 70.489 15.758 70.978L8.402 72.702L7.228 76.743L22.85 72.693L34.1 84.9L35.263 80.9L30.283 75.938C28.33 73.852 27.11 72.673 25.771 71.459L25.794 71.379C27.594 70.992 29.335 70.542 32.022 69.805L38.983 68.097L40.158 64.06ZM45.688 56.272L48.269 53.726L40.369 45.717C41.1905 45.1838 41.9463 44.5559 42.621 43.846C45.142 41.358 46.635 38.422 46.566 35.622C46.5265 34.5276 46.2699 33.4519 45.8112 32.4574C45.3525 31.4629 44.7008 30.5695 43.894 29.829C43.1525 29.0162 42.2423 28.3752 41.2271 27.951C40.212 27.5268 39.1164 27.3295 38.017 27.373C35.777 27.473 33.323 28.726 30.772 31.243C29.104 32.8708 27.5744 34.6345 26.199 36.516L45.688 56.272ZM30.621 35.835C31.2633 34.8844 32.011 34.0095 32.85 33.227C35.698 30.417 38.825 29.849 41.43 32.489C44.152 35.248 43.746 38.634 40.63 41.706C39.9315 42.434 39.1451 43.0722 38.289 43.606L30.621 35.835ZM66.885 39.268L70.367 38.26L66.981 26.572L70.263 25.621C73.463 24.821 75.306 25.808 77.185 29.299C78.2146 31.3853 79.4419 33.368 80.85 35.22L84.45 34.176C83.588 33.298 82.194 30.882 80.223 27.376C78.771 24.76 76.974 23.198 74.684 23.076L74.65 22.96C76.0057 22.0944 77.0413 20.8093 77.5988 19.3006C78.1563 17.7918 78.2052 16.1421 77.738 14.603C77.492 13.6384 77.0432 12.7373 76.4213 11.96C75.7995 11.1826 75.019 10.5468 74.132 10.095C72.01 9.061 69.412 9.077 65.69 10.155C63.4434 10.785 61.2601 11.622 59.168 12.655L66.885 39.268ZM63.362 14.084C64.4211 13.5115 65.5456 13.0693 66.711 12.767C70.405 11.74 73.367 12.531 74.376 16.013C75.269 19.095 73.499 21.82 69.776 22.899L66.215 23.93L63.362 14.084ZM111.262 21.533L100.556 19.394L102.295 10.694L113.614 12.955L114.214 9.972L99.34 7L93.84 34.542L109.327 37.636L109.927 34.653L97.995 32.269L99.979 22.339L110.685 24.478L111.262 21.533ZM117.907 40.16C118.895 42.4607 120.46 44.467 122.452 45.984C127.673 50.062 132.51 49.084 135.178 45.667C137.717 42.416 137.224 39.123 134.609 34.754C132.478 31.186 131.927 29.117 133.543 27.048C134.723 25.537 137.283 24.629 140.304 26.989C141.775 28.1296 142.937 29.6193 143.686 31.323L146.296 29.607C145.383 27.6564 143.99 25.9686 142.249 24.701C137.949 21.341 133.09 21.671 130.397 25.118C127.96 28.238 128.731 31.853 131.343 35.956C133.433 39.439 133.692 41.545 132.076 43.614C130.332 45.847 127.419 46.056 124.496 43.774C122.703 42.3474 121.324 40.467 120.502 38.328L117.907 40.16ZM136.55 61.494C136.797 61.9597 137.179 62.3403 137.646 62.5863C138.112 62.8323 138.642 62.9324 139.166 62.8735C139.69 62.8146 140.185 62.5995 140.585 62.2561C140.985 61.9128 141.273 61.457 141.411 60.9479C141.549 60.4389 141.531 59.9001 141.358 59.4016C141.186 58.9031 140.868 58.4678 140.446 58.1523C140.023 57.8369 139.515 57.6557 138.988 57.6325C138.461 57.6093 137.94 57.745 137.491 58.022C137.191 58.1774 136.926 58.3936 136.713 58.6568C136.501 58.92 136.345 59.2245 136.257 59.551C136.168 59.8775 136.149 60.2188 136.199 60.5533C136.25 60.8878 136.369 61.2082 136.55 61.494V61.494ZM152.942 75.481C147.603 76.802 145.727 75.292 144.942 72.137C144.691 71.1297 144.623 70.0853 144.742 69.054L141.742 69.239C141.615 70.553 141.711 71.879 142.026 73.161C143.187 77.853 146.292 80.861 153.533 79.071L171.77 74.56L170.899 71.041L152.942 75.481ZM146.95 91.272C145.385 93.226 144.352 95.5511 143.95 98.022C142.805 104.548 145.95 108.357 150.214 109.106C154.277 109.819 156.953 107.835 159.58 103.472C161.727 99.914 163.295 98.455 165.88 98.908C167.768 99.24 169.773 101.072 169.111 104.849C168.795 106.683 168.026 108.409 166.875 109.872L169.617 111.372C170.909 109.649 171.744 107.626 172.044 105.493C172.988 100.116 170.413 95.983 166.103 95.227C162.203 94.543 159.374 96.927 156.981 101.158C154.889 104.641 153.152 105.858 150.566 105.406C147.775 104.916 146.221 102.443 146.866 98.79C147.282 96.5364 148.293 94.435 149.795 92.704L146.95 91.272Z" fill="#FF6C00"/>
</g>
</g>
</svg>
