<svg width="180" height="180" viewBox="0 0 180 180" fill="none" xmlns="http://www.w3.org/2000/svg">
<g id="Group 112">
<mask id="mask0" mask-type="alpha" maskUnits="userSpaceOnUse" x="0" y="0" width="180" height="180">
<rect id="Rectangle 178" width="180" height="180" fill="#C4C4C4"/>
</mask>
<g mask="url(#mask0)">
<path id="outer-circle" d="M89.5 142C118.495 142 142 118.495 142 89.5C142 60.5051 118.495 37 89.5 37C60.5051 37 37 60.5051 37 89.5C37 118.495 60.5051 142 89.5 142Z" stroke="#5A8F6F" stroke-opacity="0.6"/>
<g id="Group 111">
<path id="leaf-3" d="M109.293 80.4671C104.599 59.7567 94.8015 54.2418 92.3156 50.3434C90.9644 48.2228 89.5867 45 89.5867 45C89.452 46.8369 89.2132 48.0003 87.6457 49.3964C84.5065 52.1947 71.1663 63.0652 70.0458 86.5984C69.0008 108.54 86.17 122.072 88.4519 123.47C90.1949 124.327 92.3298 123.486 93.3504 122.7C101.625 117.018 112.944 101.867 109.283 80.4671" fill="#00FF66"/>
<path id="leaf-2" d="M90.2979 111.783C89.8672 117.216 89.557 120.378 88.4609 123.476C88.4609 123.476 89.1835 128.646 89.6856 134.124H91.4756C91.9028 130.266 92.555 126.436 93.4288 122.654C91.1102 121.517 90.3856 116.549 90.2979 111.783Z" fill="#B8C4C2"/>
<path id="leaf-1" d="M93.4241 122.657C91.081 121.575 90.4033 116.507 90.2992 111.782C90.8765 103.992 91.0434 96.1771 90.7993 88.3694C90.6768 84.2731 90.8605 50.4224 89.791 45.4668C90.2237 46.4363 91.2687 48.7141 92.3137 50.3408C94.8099 54.2412 104.599 59.7561 109.289 80.4686C112.945 101.814 101.692 116.938 93.4241 122.657Z" fill="#12924F"/>
</g>
<path id="mongo-text"  class="logo-text"  fill-rule="evenodd" clip-rule="evenodd" d="M33.932 89.4305L33.282 85.9494L6 92.8214L6.848 97.3674L21.117 99.7895C24.828 100.368 28.042 100.789 30.956 100.962L30.979 101.085C28.242 102.316 25.387 103.824 22.202 105.605L9.73 112.805L10.579 117.351L38.542 114.123L37.907 110.723L25.934 112.195C21.752 112.722 17.086 113.381 13.634 113.941L13.619 113.859C16.75 112.469 20.107 110.698 23.753 108.659L36.066 101.741L35.566 99.0415L21.266 96.6674C17.197 95.9854 13.543 95.4814 10.132 95.1434L10.109 95.0204C13.557 94.4204 18.139 93.3095 21.95 92.3865L33.932 89.4305ZM15.588 51.8305C12.188 58.5125 14.868 66.0975 22.813 70.1435C30.386 74.0005 37.873 71.9685 41.238 65.3605C44.489 58.9775 42.588 51.4175 33.974 47.0315C26.55 43.2505 19.066 45.0025 15.587 51.8335L15.588 51.8305ZM18.148 53.3215C20.889 47.9385 27.41 47.9865 32.385 50.5215C38.065 53.4145 41.305 58.7105 38.696 63.8345C36.106 68.9205 29.842 69.3775 24.496 66.6555C19.001 63.8575 15.425 58.6705 18.147 53.3245L18.148 53.3215ZM57.374 45.0025L51.622 34.4775C49.383 30.3825 47.691 27.4615 45.809 24.4535L45.899 24.3535C48.8149 26.437 51.8537 28.3428 54.999 30.0605L69.659 38.2865L72.876 36.5275L59.407 11.8855L56.407 13.5245L62.044 23.8345C64.144 27.6735 65.855 30.6345 67.944 33.7615L67.891 33.8375C65.0831 31.7843 62.1434 29.9176 59.091 28.2495L44.381 20.1015L40.908 22.0015L54.38 46.6415L57.374 45.0025ZM106.946 21.3115L97.729 20.5325L97.483 23.4385L103.171 23.9195L102.471 32.2645C100.886 32.7167 99.2236 32.8325 97.591 32.6045C91.073 32.0535 87.151 27.4985 87.751 20.3985C88.344 13.3815 93.145 9.52245 99.951 10.0985C102.081 10.2212 104.158 10.8108 106.035 11.8255L107.157 8.95145C105.022 7.85827 102.684 7.21917 100.29 7.07445C90.907 6.28145 84.661 11.9005 83.914 20.2425C83.6792 22.1453 83.8254 24.0759 84.3443 25.9217C84.8631 27.7675 85.7441 29.4916 86.936 30.9935C89.455 33.8405 92.852 35.2155 97.087 35.5735C100.02 35.7958 102.969 35.522 105.811 34.7635L106.946 21.3115ZM142.78 25.1435C136.96 20.4135 128.98 21.4435 123.358 28.3655C117.998 34.9655 118.414 42.7085 124.169 47.3855C129.73 51.9055 137.521 51.6325 143.617 44.1315C148.874 37.6645 148.733 29.9775 142.784 25.1435H142.78ZM140.78 27.3345C145.469 31.1445 144.053 37.5105 140.532 41.8435C136.512 46.7905 130.653 48.8435 126.191 45.2215C121.762 41.6215 122.629 35.4015 126.413 30.7455C130.311 25.9585 136.133 23.5505 140.789 27.3345H140.78ZM139.844 64.1125C140.232 66.2767 140.742 68.4175 141.371 70.5245C142.902 75.7635 145.478 79.5244 148.734 81.3084C151.95 83.1034 155.946 83.4085 160.346 82.1255C164.705 80.8515 167.415 78.5405 168.914 75.4975C170.424 72.4975 170.543 68.5975 169.082 63.5975C168.356 61.1215 167.446 58.7031 166.36 56.3625L139.844 64.1125ZM164.817 60.5905C165.471 61.8578 165.991 63.1896 166.369 64.5644C168.52 71.9234 165.533 76.7034 159.162 78.5214C151.883 80.6484 146.543 77.8215 144.369 70.3865C143.998 69.2179 143.721 68.0214 143.541 66.8085L164.817 60.5905ZM145.282 96.3774C144.57 98.118 143.974 99.904 143.499 101.723C142.309 106.149 142.292 109.423 143.514 111.78C144.012 112.706 144.697 113.518 145.526 114.164C146.355 114.811 147.31 115.277 148.329 115.534C149.934 115.953 151.635 115.808 153.146 115.122C154.657 114.437 155.887 113.253 156.629 111.769L156.71 111.791C156.75 113.187 157.227 114.535 158.074 115.646C158.921 116.756 160.095 117.572 161.431 117.979C162.341 118.268 163.308 118.33 164.247 118.162C165.187 117.994 166.072 117.6 166.825 117.013C168.648 115.691 169.857 113.6 170.798 110.099C171.39 107.958 171.778 105.765 171.955 103.55L145.282 96.3774ZM168.644 106.412C168.557 107.485 168.358 108.545 168.052 109.576C167.1 113.117 165.204 115.195 162.025 114.341C159.41 113.641 158.063 110.941 159.058 107.241L159.913 104.062L168.644 106.412ZM157.257 103.351L156.478 106.251C155.45 110.073 153.067 112.841 149.365 111.846C145.421 110.786 144.992 107.089 145.965 103.467C146.206 102.479 146.524 101.512 146.916 100.573L157.257 103.351Z" fill="#1BDB68"/>
</g>
</g>
</svg>
