<svg width="180" height="180" viewBox="0 0 180 180" fill="none" xmlns="http://www.w3.org/2000/svg">
<g id="Group 109">
<mask id="mask0" mask-type="alpha" maskUnits="userSpaceOnUse" x="0" y="0" width="180" height="180">
<rect id="Rectangle 176" width="180" height="180" fill="#C4C4C4"/>
</mask>
<g mask="url(#mask0)">
<path id="outer-circle" d="M89.5 142C118.495 142 142 118.495 142 89.5C142 60.5051 118.495 37 89.5 37C60.5051 37 37 60.5051 37 89.5C37 118.495 60.5051 142 89.5 142Z" stroke="#5A8F6F" stroke-opacity="0.6"/>
<path id="logo" d="M89.9821 135.233C88.7825 135.233 87.5649 134.91 86.5085 134.302L75.4611 127.766C73.8138 126.835 74.6195 126.513 75.1567 126.334C77.359 125.564 77.8066 125.403 80.1522 124.06C80.4029 123.917 80.7252 123.97 80.9758 124.132L89.4629 129.163C89.7672 129.342 90.197 129.342 90.4834 129.163L123.554 110.076C123.859 109.897 124.056 109.539 124.056 109.181V71.0072C124.056 70.6312 123.859 70.291 123.536 70.094L90.4834 51.0251C90.1791 50.846 89.7672 50.846 89.4629 51.0251L56.4279 70.1119C56.1056 70.291 55.9087 70.6491 55.9087 71.0251V109.181C55.9087 109.539 56.1056 109.897 56.4279 110.058L65.4879 115.286C70.4118 117.739 73.4199 114.857 73.4199 111.938V74.2659C73.4199 73.7287 73.8496 73.3169 74.3868 73.3169H78.5765C79.0958 73.3169 79.5434 73.7287 79.5434 74.2659V111.956C79.5434 118.509 75.9624 122.269 69.7493 122.269C67.8335 122.269 66.3295 122.269 62.1397 120.192L53.4736 115.197C51.325 113.962 50 111.652 50 109.163V71.0072C50 68.5363 51.325 66.2086 53.4736 64.9731L86.5085 45.8863C88.6034 44.7046 91.3787 44.7046 93.4557 45.8863L126.526 64.991C128.675 66.2265 130 68.5363 130 71.0251V109.181C130 111.652 128.675 113.962 126.526 115.215L93.4557 134.302C92.3993 134.91 91.1996 135.233 89.9821 135.233ZM116.679 97.6141C116.679 90.47 111.844 88.5721 101.692 87.2292C91.4145 85.8684 90.376 85.1701 90.376 82.7708C90.376 80.7834 91.2534 78.1334 98.863 78.1334C105.649 78.1334 108.156 79.6016 109.194 84.1853C109.284 84.615 109.678 84.9373 110.125 84.9373H114.423C114.691 84.9373 114.942 84.8299 115.121 84.6329C115.3 84.436 115.389 84.1674 115.372 83.8988C114.709 76.0027 109.463 72.3321 98.863 72.3321C89.427 72.3321 83.8048 76.3071 83.8048 82.9857C83.8048 90.2193 89.4091 92.2247 98.4512 93.12C109.284 94.1764 110.125 95.7699 110.125 97.9006C110.125 101.589 107.153 103.165 100.188 103.165C91.4324 103.165 89.5166 100.962 88.872 96.6115C88.8004 96.1459 88.4064 95.8057 87.923 95.8057H83.6437C83.1065 95.8057 82.6947 96.2355 82.6947 96.7547C82.6947 102.323 85.7207 108.966 100.206 108.966C110.662 108.948 116.679 104.812 116.679 97.6141V97.6141Z" fill="url(#paint0_linear)"/>
<path id="node-text"  class="logo-text" fill-rule="evenodd" clip-rule="evenodd" d="M35.223 86.5541L23.437 84.3041C18.853 83.4291 15.523 82.8781 12.005 82.4191L11.987 82.2891C15.4496 81.3617 18.8531 80.2264 22.179 78.8891L37.847 72.8031L38.535 69.2031L10.953 63.9361L10.312 67.2921L21.853 69.4921C26.153 70.3121 29.522 70.8711 33.267 71.2471L33.292 71.3371C29.9212 72.2004 26.6108 73.2841 23.382 74.5811L7.742 80.7561L7 84.6441L34.582 89.9101L35.223 86.5541ZM31.951 30.4091C26.62 35.6851 26.784 43.7301 33.057 50.0681C39.037 56.1101 46.784 56.5331 52.057 51.3161C57.151 46.2741 57.722 38.4981 50.921 31.6271C45.058 25.7031 37.4 25.0151 31.951 30.4091ZM33.914 32.6291C38.209 28.3791 44.385 30.4731 48.314 34.4421C52.799 38.9731 54.214 45.0211 50.124 49.0661C46.066 53.0821 39.975 51.5471 35.754 47.2831C31.415 42.8991 29.649 36.8501 33.913 32.6241L33.914 32.6291ZM70.372 37.5521C72.566 37.4023 74.7498 37.1288 76.913 36.7331C82.288 35.7811 86.313 33.6331 88.436 30.5891C90.571 27.5891 91.312 23.6481 90.513 19.1341C89.721 14.6621 87.719 11.7151 84.857 9.89514C82.037 8.06714 78.174 7.52314 73.046 8.43114C70.5055 8.88351 68.0022 9.52462 65.557 10.3491L70.372 37.5521ZM69.591 12.3431C70.9222 11.8315 72.3029 11.4595 73.711 11.2331C81.261 9.89714 85.687 13.3871 86.801 19.9181C88.123 27.3861 84.734 32.3861 77.101 33.7371C75.8989 33.9792 74.6793 34.1243 73.454 34.1711L69.591 12.3431ZM122.204 25.7191L111.961 21.9411L115.033 13.6141L125.862 17.6081L126.914 14.7541L112.682 9.50614L102.966 35.8541L117.782 41.3241L118.834 38.4701L107.419 34.2591L110.919 24.7591L121.162 28.5371L122.204 25.7191ZM126.204 48.6191C126.582 48.9866 127.062 49.232 127.581 49.3233C128.1 49.4146 128.635 49.3478 129.116 49.1313C129.596 48.9149 130.001 48.559 130.277 48.1097C130.553 47.6604 130.687 47.1386 130.663 46.612C130.638 46.0853 130.456 45.5782 130.14 45.1565C129.823 44.7347 129.387 44.4179 128.889 44.247C128.39 44.0761 127.851 44.0591 127.343 44.1982C126.834 44.3374 126.379 44.6262 126.037 45.0271C125.799 45.2669 125.613 45.5535 125.491 45.8689C125.37 46.1843 125.315 46.5215 125.33 46.8591C125.346 47.1968 125.432 47.5275 125.582 47.8303C125.732 48.1331 125.944 48.4014 126.203 48.6181L126.204 48.6191ZM146.095 56.8751C141.424 59.7811 139.173 58.9241 137.455 56.1641C136.904 55.2842 136.515 54.3125 136.308 53.2951L133.508 54.3951C133.793 55.6843 134.293 56.9161 134.989 58.0381C137.543 62.1381 141.427 64.0461 147.761 60.1041L163.72 50.1741L161.804 47.0961L146.095 56.8751ZM145.268 73.7341C144.373 76.0719 144.097 78.6014 144.468 81.0771C145.368 87.6401 149.522 90.3071 153.815 89.7171C157.901 89.1551 159.842 86.4491 161.015 81.4941C161.973 77.4511 163.015 75.5831 165.615 75.2251C167.515 74.9641 169.983 76.0961 170.505 79.8941C170.765 81.7369 170.56 83.6154 169.91 85.3591L172.982 85.9441C173.686 83.9093 173.864 81.7293 173.499 79.6071C172.755 74.2001 169.042 71.0521 164.708 71.6481C160.787 72.1871 158.82 75.3171 157.835 80.0791C156.907 84.0341 155.625 85.7241 153.025 86.0791C150.218 86.4651 147.983 84.5851 147.478 80.9121C147.186 78.6394 147.507 76.3299 148.408 74.2231L145.268 73.7341Z" fill="#00FF66"/>
</g>
</g>
<defs>
<linearGradient id="paint0_linear" x1="90" y1="45" x2="90" y2="135.233" gradientUnits="userSpaceOnUse">
<stop stop-color="#17EC6C"/>
<stop offset="1" stop-color="#37704E"/>
</linearGradient>
</defs>
</svg>
