<svg width="180" height="180" viewBox="0 0 180 180" fill="none" xmlns="http://www.w3.org/2000/svg">
<g id="Group 108">
<mask id="mask0" mask-type="alpha" maskUnits="userSpaceOnUse" x="0" y="0" width="180" height="180">
<rect id="Rectangle 176" width="180" height="180" fill="#C4C4C4"/>
</mask>
<g mask="url(#mask0)">
<path id="react-brand" d="M121.68 74.3569C120.625 74.0054 119.57 73.6733 118.516 73.3608C118.691 72.6382 118.848 71.9155 119.004 71.1929C121.406 59.5522 119.824 50.1968 114.492 47.1108C109.355 44.1616 100.977 47.228 92.5 54.6108C91.6602 55.3335 90.8398 56.0952 90.0586 56.8569C89.5312 56.3491 88.9844 55.8413 88.4375 55.353C79.5508 47.4624 70.6445 44.1421 65.3125 47.2476C60.1953 50.2163 58.6719 59.0249 60.8203 70.0405C61.0352 71.1343 61.2695 72.2085 61.543 73.3022C60.293 73.6538 59.0625 74.0444 57.9102 74.4546C47.4805 78.0679 40 83.771 40 89.6694C40 95.7632 47.9688 101.876 58.8086 105.587C59.6875 105.88 60.5664 106.173 61.4648 106.427C61.1719 107.599 60.918 108.751 60.6836 109.943C58.6328 120.783 60.2344 129.376 65.3516 132.326C70.625 135.373 79.4922 132.248 88.125 124.689C88.8086 124.083 89.4922 123.459 90.1758 122.794C91.0352 123.634 91.9336 124.435 92.832 125.216C101.191 132.404 109.453 135.314 114.551 132.365C119.824 129.318 121.543 120.08 119.316 108.83C119.141 107.97 118.945 107.091 118.73 106.193C119.355 106.017 119.961 105.822 120.566 105.626C131.836 101.896 140 95.8608 140 89.6694C140 83.7515 132.305 78.0093 121.68 74.3569V74.3569ZM95.2539 57.7749C102.52 51.4468 109.297 48.9663 112.383 50.7437C115.684 52.6382 116.953 60.2944 114.883 70.353C114.746 71.0171 114.609 71.6616 114.434 72.3062C110.098 71.3296 105.703 70.6265 101.289 70.2358C98.75 66.603 95.9766 63.1265 92.9688 59.8647C93.7305 59.1421 94.4727 58.4585 95.2539 57.7749V57.7749ZM72.6562 99.8062C73.6523 101.505 74.668 103.205 75.7422 104.865C72.6953 104.533 69.668 104.044 66.6797 103.4C67.5391 100.587 68.6133 97.6772 69.8633 94.7085C70.7617 96.4272 71.6797 98.1265 72.6562 99.8062V99.8062ZM66.7383 76.3101C69.5508 75.6851 72.5391 75.1772 75.6445 74.7866C74.6094 76.4077 73.5938 78.0679 72.6367 79.7476C71.6797 81.4077 70.7422 83.1069 69.8633 84.8257C68.6328 81.9155 67.5977 79.064 66.7383 76.3101ZM72.0898 89.7671C73.3789 87.0718 74.7852 84.4351 76.2695 81.8374C77.7539 79.2397 79.3555 76.7202 81.0352 74.2397C83.9648 74.0249 86.9531 73.9077 90 73.9077C93.0469 73.9077 96.0547 74.0249 98.9648 74.2397C100.625 76.7007 102.207 79.2202 103.711 81.7983C105.215 84.3765 106.621 87.0132 107.949 89.689C106.641 92.3843 105.234 95.0405 103.73 97.6577C102.246 100.255 100.664 102.775 99.0039 105.275C96.0938 105.49 93.0664 105.587 90 105.587C86.9336 105.587 83.9648 105.49 81.0937 105.314C79.3945 102.834 77.793 100.294 76.2891 97.6968C74.7852 95.0991 73.3984 92.4624 72.0898 89.7671ZM107.363 99.7671C108.359 98.0483 109.297 96.3101 110.215 94.5522C111.465 97.3843 112.559 100.255 113.516 103.205C110.488 103.888 107.422 104.416 104.336 104.767C105.391 103.126 106.387 101.447 107.363 99.7671ZM110.176 84.8257C109.258 83.1069 108.32 81.3882 107.344 79.7085C106.387 78.0483 105.391 76.4077 104.355 74.7866C107.5 75.1772 110.508 75.7046 113.32 76.3491C112.422 79.2397 111.367 82.0522 110.176 84.8257V84.8257ZM90.0391 62.853C92.0898 65.0796 94.0234 67.4233 95.8203 69.8452C91.9531 69.6694 88.0664 69.6694 84.1992 69.8452C86.1133 67.3257 88.0859 64.9819 90.0391 62.853ZM67.3828 50.8804C70.6641 48.9663 77.9492 51.7007 85.625 58.4976C86.1133 58.9272 86.6016 59.396 87.1094 59.8647C84.082 63.1265 81.2891 66.603 78.7305 70.2358C74.3164 70.6265 69.9414 71.3101 65.6055 72.2671C65.3516 71.271 65.1367 70.2554 64.9219 69.2397C63.0859 59.7866 64.2969 52.6577 67.3828 50.8804V50.8804ZM62.5977 102.365C61.7773 102.13 60.9766 101.876 60.1758 101.603C56.0156 100.294 51.2891 98.2241 47.8711 95.5093C45.8984 94.1421 44.5703 92.0327 44.1992 89.6694C44.1992 86.0952 50.3711 81.5249 59.2773 78.4194C60.3906 78.0288 61.5234 77.6772 62.6562 77.3452C63.9844 81.5835 65.5859 85.7437 67.4414 89.7671C65.5664 93.8491 63.9453 98.0679 62.5977 102.365V102.365ZM85.3711 121.505C82.1484 124.455 78.418 126.798 74.3555 128.4C72.1875 129.435 69.6875 129.533 67.4609 128.654C64.3555 126.857 63.0664 119.962 64.8242 110.685C65.0391 109.591 65.2734 108.498 65.5469 107.423C69.9219 108.361 74.3359 109.005 78.8086 109.337C81.3867 112.99 84.2187 116.486 87.2461 119.767C86.6211 120.373 85.9961 120.959 85.3711 121.505ZM90.1562 116.759C88.1641 114.611 86.1719 112.228 84.2383 109.669C86.1133 109.748 88.0469 109.787 90 109.787C92.0117 109.787 93.9844 109.748 95.9375 109.65C94.1406 112.13 92.207 114.494 90.1562 116.759V116.759ZM115.684 122.619C115.508 125.001 114.336 127.228 112.461 128.732C109.355 130.529 102.734 128.185 95.5859 122.052C94.7656 121.349 93.9453 120.587 93.1055 119.806C96.0937 116.505 98.8477 113.009 101.348 109.337C105.82 108.966 110.273 108.283 114.668 107.287C114.863 108.087 115.039 108.888 115.195 109.669C116.152 113.888 116.309 118.283 115.684 122.619V122.619ZM119.238 101.623C118.691 101.798 118.145 101.974 117.578 102.13C116.211 97.8726 114.531 93.7124 112.598 89.6694C114.473 85.6851 116.055 81.5835 117.383 77.3843C118.398 77.6772 119.375 77.9897 120.313 78.3022C129.414 81.4272 135.801 86.0757 135.801 89.6304C135.801 93.4585 128.984 98.3999 119.238 101.623ZM90 98.6929C94.9414 98.6929 98.9453 94.689 98.9453 89.7476C98.9453 84.8062 94.9414 80.8022 90 80.8022C85.0586 80.8022 81.0547 84.8062 81.0547 89.7476C81.0547 94.689 85.0586 98.6929 90 98.6929Z" fill="#219DF7"/>
<path id="react-text" class="logo-text" fill-rule="evenodd" clip-rule="evenodd" d="M35.143 86.9025L35.873 83.3515L23.955 80.9015L24.643 77.5525C25.428 74.3525 27.159 73.1775 31.123 73.1415C33.4495 73.202 35.7765 73.0393 38.072 72.6555L38.827 68.9815C37.648 69.3345 34.861 69.4425 30.839 69.5515C27.847 69.6175 25.628 70.4795 24.457 72.4515L24.335 72.4285C24.201 70.8255 23.5466 69.3104 22.4715 68.1139C21.3964 66.9175 19.9595 66.1054 18.38 65.8015C17.412 65.5695 16.4056 65.5466 15.428 65.7344C14.4504 65.9222 13.5242 66.3163 12.711 66.8905C10.811 68.2905 9.611 70.5905 8.83 74.3905C8.33972 76.6712 8.06186 78.9925 8 81.3245L35.143 86.9025ZM11.22 78.2825C11.2083 77.078 11.3427 75.8766 11.62 74.7045C12.433 70.9575 14.513 68.7045 18.064 69.4355C21.207 70.0815 22.793 72.9175 22.013 76.7135L21.266 80.3465L11.22 78.2825ZM40.245 39.3525L33.335 47.7985L26.464 42.1795L33.772 33.2445L31.417 31.3185L21.817 43.0605L43.554 60.8415L53.554 48.6165L51.199 46.6905L43.499 56.1095L35.661 49.6985L42.573 41.2475L40.245 39.3525ZM71.708 28.9715L77.752 36.0795L81.352 34.6515L62.098 12.0705L58.035 13.6825L59.505 43.3095L62.992 41.9275L62.45 32.6395L71.708 28.9715ZM62.102 29.7295L61.666 21.1615C61.54 19.3735 61.337 17.6165 61.111 15.9135L61.189 15.8825C62.175 17.2395 63.176 18.6365 64.433 20.1105L69.968 26.6105L62.102 29.7295ZM109.496 33.5665C107.527 34.0715 105.475 34.1574 103.471 33.8185C96.717 32.7775 93.477 27.8085 94.524 21.0185C95.648 13.7295 100.613 10.2365 107.124 11.2385C109.059 11.5012 110.911 12.1897 112.547 13.2545L113.863 10.4635C111.929 9.23603 109.74 8.46615 107.463 8.21246C98.856 6.88546 92.063 11.8675 90.719 20.5575C89.319 29.6575 94.444 35.5085 102.269 36.7145C104.765 37.1841 107.333 37.12 109.803 36.5265L109.496 33.5665ZM123.496 46.0075L126.36 48.2965L141.97 28.7685L148.67 34.1275L150.595 31.7195L134.361 18.7385L132.435 21.1465L139.107 26.4795L123.496 46.0075ZM136.283 60.2925C136.545 60.7497 136.939 61.1175 137.413 61.3481C137.887 61.5787 138.42 61.6614 138.941 61.5856C139.463 61.5098 139.95 61.2789 140.339 60.9229C140.727 60.5669 141 60.1022 141.122 59.5892C141.243 59.0762 141.207 58.5386 141.019 58.0461C140.831 57.5536 140.499 57.129 140.067 56.8275C139.635 56.526 139.122 56.3614 138.594 56.3551C138.067 56.3489 137.55 56.5013 137.111 56.7925C136.816 56.9578 136.558 57.1826 136.355 57.4527C136.151 57.7229 136.006 58.0323 135.929 58.3615C135.851 58.6907 135.843 59.0325 135.904 59.3651C135.966 59.6976 136.096 60.0138 136.286 60.2935L136.283 60.2925ZM153.126 73.7585C147.832 75.2515 145.909 73.8025 145.026 70.6745C144.742 69.6761 144.641 68.6348 144.726 67.6005L141.732 67.8815C141.647 69.1986 141.786 70.5205 142.142 71.7915C143.453 76.4435 146.654 79.3505 153.832 77.3265L171.917 72.2265L170.935 68.7395L153.126 73.7585ZM147.645 89.7305C146.143 91.7329 145.184 94.0899 144.861 96.5725C143.927 103.13 147.187 106.834 151.476 107.445C155.559 108.027 158.168 105.958 160.653 101.514C162.684 97.8905 164.204 96.3815 166.802 96.7515C168.702 97.0215 170.762 98.7885 170.222 102.582C169.965 104.426 169.253 106.176 168.15 107.674L170.937 109.081C172.173 107.318 172.942 105.27 173.174 103.129C173.943 97.7295 171.237 93.6805 166.906 93.0635C162.988 92.5055 160.238 94.9745 157.983 99.2825C156.005 102.83 154.309 104.103 151.71 103.733C148.91 103.333 147.273 100.913 147.795 97.2425C148.139 94.9771 149.082 92.8448 150.527 91.0665L147.645 89.7305Z" fill="white"/>
<path id="innerCircle" d="M90.5 143C119.495 143 143 119.495 143 90.5C143 61.505 119.495 38 90.5 38C61.505 38 38 61.505 38 90.5C38 119.495 61.505 143 90.5 143Z" stroke="#1D59F5"/>
</g>
</g>
</svg>
