<svg id="my-name"  width="232" height="40" viewBox="0 0 232 40" fill="none" xmlns="http://www.w3.org/2000/svg">
<path d="M18.8643 3.98V7.328H12.2043V29H8.1003V7.328H1.4043V3.98H18.8643Z" stroke="white" stroke-width="2" mask="url(#path-1-outside-1)"/>
<path d="M26.9086 6.536C26.1646 6.536 25.5406 6.284 25.0366 5.78C24.5326 5.276 24.2806 4.652 24.2806 3.908C24.2806 3.164 24.5326 2.54 25.0366 2.036C25.5406 1.532 26.1646 1.28 26.9086 1.28C27.6286 1.28 28.2406 1.532 28.7446 2.036C29.2486 2.54 29.5006 3.164 29.5006 3.908C29.5006 4.652 29.2486 5.276 28.7446 5.78C28.2406 6.284 27.6286 6.536 26.9086 6.536ZM28.9246 9.164V29H24.8206V9.164H28.9246Z" stroke="white" stroke-width="2" mask="url(#path-1-outside-1)"/>
<path d="M60.1248 8.84C61.6848 8.84 63.0768 9.164 64.3008 9.812C65.5488 10.46 66.5208 11.42 67.2168 12.692C67.9368 13.964 68.2968 15.5 68.2968 17.3V29H64.2288V17.912C64.2288 16.136 63.7848 14.78 62.8968 13.844C62.0088 12.884 60.7968 12.404 59.2608 12.404C57.7248 12.404 56.5008 12.884 55.5888 13.844C54.7008 14.78 54.2568 16.136 54.2568 17.912V29H50.1888V17.912C50.1888 16.136 49.7448 14.78 48.8568 13.844C47.9688 12.884 46.7568 12.404 45.2208 12.404C43.6848 12.404 42.4608 12.884 41.5488 13.844C40.6608 14.78 40.2168 16.136 40.2168 17.912V29H36.1128V9.164H40.2168V11.432C40.8888 10.616 41.7408 9.98 42.7728 9.524C43.8048 9.068 44.9088 8.84 46.0848 8.84C47.6688 8.84 49.0848 9.176 50.3328 9.848C51.5808 10.52 52.5408 11.492 53.2128 12.764C53.8128 11.564 54.7488 10.616 56.0208 9.92C57.2928 9.2 58.6608 8.84 60.1248 8.84Z" stroke="white" stroke-width="2" mask="url(#path-1-outside-1)"/>
<path d="M107.027 29H102.923L90.5746 10.316V29H86.4706V3.944H90.5746L102.923 22.592V3.944H107.027V29Z" stroke="white" stroke-width="2" mask="url(#path-1-outside-1)"/>
<path d="M122.208 8.84C123.744 8.84 125.1 9.152 126.276 9.776C127.476 10.376 128.412 11.132 129.084 12.044V9.164H133.224V29.324C133.224 31.148 132.84 32.768 132.072 34.184C131.304 35.624 130.188 36.752 128.724 37.568C127.284 38.384 125.556 38.792 123.54 38.792C120.852 38.792 118.62 38.156 116.844 36.884C115.068 35.636 114.06 33.932 113.82 31.772H117.888C118.2 32.804 118.86 33.632 119.868 34.256C120.9 34.904 122.124 35.228 123.54 35.228C125.196 35.228 126.528 34.724 127.536 33.716C128.568 32.708 129.084 31.244 129.084 29.324V26.012C128.388 26.948 127.44 27.74 126.24 28.388C125.064 29.012 123.72 29.324 122.208 29.324C120.48 29.324 118.896 28.892 117.456 28.028C116.04 27.14 114.912 25.916 114.072 24.356C113.256 22.772 112.848 20.984 112.848 18.992C112.848 17 113.256 15.236 114.072 13.7C114.912 12.164 116.04 10.976 117.456 10.136C118.896 9.272 120.48 8.84 122.208 8.84ZM129.084 19.064C129.084 17.696 128.796 16.508 128.22 15.5C127.668 14.492 126.936 13.724 126.024 13.196C125.112 12.668 124.128 12.404 123.072 12.404C122.016 12.404 121.032 12.668 120.12 13.196C119.208 13.7 118.464 14.456 117.888 15.464C117.336 16.448 117.06 17.624 117.06 18.992C117.06 20.36 117.336 21.56 117.888 22.592C118.464 23.624 119.208 24.416 120.12 24.968C121.056 25.496 122.04 25.76 123.072 25.76C124.128 25.76 125.112 25.496 126.024 24.968C126.936 24.44 127.668 23.672 128.22 22.664C128.796 21.632 129.084 20.432 129.084 19.064Z" stroke="white" stroke-width="2" mask="url(#path-1-outside-1)"/>
<path d="M158.378 9.164V29H154.274V26.66C153.626 27.476 152.774 28.124 151.718 28.604C150.686 29.06 149.582 29.288 148.406 29.288C146.846 29.288 145.442 28.964 144.194 28.316C142.97 27.668 141.998 26.708 141.278 25.436C140.582 24.164 140.234 22.628 140.234 20.828V9.164H144.302V20.216C144.302 21.992 144.746 23.36 145.634 24.32C146.522 25.256 147.734 25.724 149.27 25.724C150.806 25.724 152.018 25.256 152.906 24.32C153.818 23.36 154.274 21.992 154.274 20.216V9.164H158.378Z" stroke="white" stroke-width="2" mask="url(#path-1-outside-1)"/>
<path d="M183.449 9.164L171.281 38.324H167.033L171.065 28.676L163.253 9.164H167.825L173.405 24.284L179.201 9.164H183.449Z" stroke="white" stroke-width="2" mask="url(#path-1-outside-1)"/>
<path d="M206.526 18.596C206.526 19.34 206.478 20.012 206.382 20.612H191.226C191.346 22.196 191.934 23.468 192.99 24.428C194.046 25.388 195.342 25.868 196.878 25.868C199.086 25.868 200.646 24.944 201.558 23.096H205.986C205.386 24.92 204.294 26.42 202.71 27.596C201.15 28.748 199.206 29.324 196.878 29.324C194.982 29.324 193.278 28.904 191.766 28.064C190.278 27.2 189.102 26 188.238 24.464C187.398 22.904 186.978 21.104 186.978 19.064C186.978 17.024 187.386 15.236 188.202 13.7C189.042 12.14 190.206 10.94 191.694 10.1C193.206 9.26 194.934 8.84 196.878 8.84C198.75 8.84 200.418 9.248 201.882 10.064C203.346 10.88 204.486 12.032 205.302 13.52C206.118 14.984 206.526 16.676 206.526 18.596ZM202.242 17.3C202.218 15.788 201.678 14.576 200.622 13.664C199.566 12.752 198.258 12.296 196.698 12.296C195.282 12.296 194.07 12.752 193.062 13.664C192.054 14.552 191.454 15.764 191.262 17.3H202.242Z" stroke="white" stroke-width="2" mask="url(#path-1-outside-1)"/>
<path d="M222.373 8.84C223.933 8.84 225.325 9.164 226.549 9.812C227.797 10.46 228.769 11.42 229.465 12.692C230.161 13.964 230.509 15.5 230.509 17.3V29H226.441V17.912C226.441 16.136 225.997 14.78 225.109 13.844C224.221 12.884 223.009 12.404 221.473 12.404C219.937 12.404 218.713 12.884 217.801 13.844C216.913 14.78 216.469 16.136 216.469 17.912V29H212.365V9.164H216.469V11.432C217.141 10.616 217.993 9.98 219.025 9.524C220.081 9.068 221.197 8.84 222.373 8.84Z" stroke="white" stroke-width="2" mask="url(#path-1-outside-1)"/>
</svg>